<svg width="180" height="28" viewBox="0 0 180 28" fill="none" xmlns="http://www.w3.org/2000/svg">
<g id="Group 21520">
<path id="Vector" d="M134.189 27.4198L136.832 24.7896L134.189 22.1593L131.545 24.7895L134.189 27.4198Z" fill="#7B7BFF"/>
<g id="Aksent">
<path d="M0 27.451L8.47059 0H14.2745L22.7451 27.451H19.3333L17.2157 20.5098H5.52941L3.41177 27.451H0ZM6.35294 17.5294H16.3529L11.6471 2H11.098L6.35294 17.5294Z" fill="#080311"/>
<path d="M26.9758 27.451V0H30.0738V16.1569H30.6229L39.4072 8.27451H43.7209L33.0934 17.6078L44.0346 27.451H39.7601L30.6229 19.098H30.0738V27.451H26.9758Z" fill="#080311"/>
<path d="M55.3048 28C52.9258 28 50.9127 27.451 49.2656 26.3529C47.6447 25.2549 46.6643 23.5163 46.3245 21.1373L49.2656 20.4706C49.4748 21.7255 49.8669 22.719 50.4421 23.451C51.0173 24.1569 51.7231 24.6667 52.5597 24.9804C53.4225 25.268 54.3375 25.4118 55.3048 25.4118C56.7428 25.4118 57.88 25.1242 58.7166 24.549C59.5532 23.9739 59.9715 23.2026 59.9715 22.2353C59.9715 21.2418 59.5663 20.549 58.7558 20.1569C57.9715 19.7386 56.8865 19.3987 55.5009 19.1373L53.8931 18.8627C52.6643 18.6536 51.5401 18.3268 50.5205 17.8824C49.5009 17.4379 48.6905 16.8366 48.0892 16.0784C47.4879 15.3203 47.1872 14.366 47.1872 13.2157C47.1872 11.4902 47.8539 10.1438 49.1872 9.17647C50.5205 8.20915 52.2852 7.72549 54.4813 7.72549C56.6512 7.72549 58.4029 8.22222 59.7362 9.21569C61.0957 10.183 61.9715 11.5556 62.3637 13.3333L59.4617 14.0784C59.2264 12.6928 58.6643 11.7255 57.7754 11.1765C56.8865 10.6013 55.7885 10.3137 54.4813 10.3137C53.1741 10.3137 52.1414 10.5621 51.3833 11.0588C50.6251 11.5294 50.246 12.2353 50.246 13.1765C50.246 14.0915 50.599 14.7712 51.3048 15.2157C52.0369 15.634 53.0042 15.9477 54.2068 16.1569L55.8146 16.4314C57.1741 16.6667 58.3898 16.9935 59.4617 17.4118C60.5597 17.8039 61.4225 18.3791 62.0499 19.1373C62.7035 19.8954 63.0303 20.8889 63.0303 22.1176C63.0303 24 62.3244 25.451 60.9127 26.4706C59.5271 27.4902 57.6578 28 55.3048 28Z" fill="#080311"/>
<path d="M77.0438 28C75.1092 28 73.4098 27.5948 71.9458 26.7843C70.4817 25.9477 69.3445 24.7843 68.534 23.2941C67.7235 21.8039 67.3183 20.0784 67.3183 18.1176V17.6471C67.3183 15.6601 67.7235 13.9216 68.534 12.4314C69.3445 10.9412 70.4686 9.79085 71.9066 8.98039C73.3445 8.14379 74.9915 7.72549 76.8477 7.72549C78.6517 7.72549 80.2464 8.11765 81.632 8.90196C83.0177 9.66013 84.1026 10.7582 84.8869 12.1961C85.6713 13.634 86.0634 15.3203 86.0634 17.2549V18.6667H70.4164C70.4948 20.732 71.1615 22.3529 72.4164 23.5294C73.6713 24.6797 75.2399 25.2549 77.1222 25.2549C78.7693 25.2549 80.0373 24.8758 80.9262 24.1176C81.815 23.3595 82.4948 22.4575 82.9654 21.4118L85.632 22.7059C85.2399 23.5163 84.6909 24.3268 83.985 25.1373C83.3052 25.9477 82.4033 26.6275 81.2791 27.1765C80.1811 27.7255 78.7693 28 77.0438 28ZM70.4556 16.1176H82.9262C82.8216 14.3399 82.2072 12.9542 81.083 11.9608C79.985 10.9673 78.5732 10.4706 76.8477 10.4706C75.0961 10.4706 73.6582 10.9673 72.534 11.9608C71.4098 12.9542 70.717 14.3399 70.4556 16.1176Z" fill="#080311"/>
<path d="M91.4672 27.451V8.27451H94.4868V11.5294H95.0359C95.4542 10.6144 96.16 9.79085 97.1535 9.05882C98.1731 8.30065 99.6633 7.92157 101.624 7.92157C103.062 7.92157 104.343 8.22222 105.467 8.82353C106.618 9.42484 107.533 10.3137 108.212 11.4902C108.892 12.6667 109.232 14.1176 109.232 15.8431V27.451H106.134V16.0784C106.134 14.1699 105.65 12.7843 104.683 11.9216C103.742 11.0588 102.461 10.6275 100.84 10.6275C98.9836 10.6275 97.4672 11.2288 96.2907 12.4314C95.1404 13.634 94.5653 15.4248 94.5653 17.8039V27.451H91.4672Z" fill="#080311"/>
<path d="M122.04 27.451C120.942 27.451 120.092 27.1503 119.491 26.549C118.916 25.9477 118.628 25.1242 118.628 24.0784V10.9804H112.864V8.27451H118.628V1.45098H121.726V8.27451H128.001V10.9804H121.726V23.6078C121.726 24.3922 122.105 24.7843 122.864 24.7843H127.138V27.451H122.04Z" fill="#080311"/>
</g>
<g id="uz">
<path d="M148.375 27.8038C146.99 27.8038 145.709 27.5032 144.532 26.9019C143.382 26.3006 142.467 25.4117 141.787 24.2352C141.133 23.0326 140.807 21.5816 140.807 19.8823V8.27441H143.905V19.647C143.905 21.5555 144.375 22.9411 145.316 23.8038C146.284 24.6666 147.578 25.0979 149.199 25.0979C151.029 25.0979 152.532 24.4966 153.709 23.294C154.885 22.0914 155.473 20.3006 155.473 17.9215V8.27441H158.571V27.4509H155.552V24.196H155.003C154.584 25.111 153.865 25.9476 152.846 26.7058C151.826 27.4378 150.336 27.8038 148.375 27.8038Z" fill="#080311"/>
<path d="M164.191 27.4509V23.4509L176.387 11.4117V10.9803H164.583V8.27441H179.642V12.2744L167.407 24.3136V24.7842H179.956V27.4509H164.191Z" fill="#080311"/>
</g>
</g>
</svg>
